# xmcd
#
# Track frame offsets: 
#        150
#        19353
#        55878
#
# Disc length: 998 seconds
#
# Revision: 1
# Processed by: cddbd v1.5.2PL0 Copyright (c) Steve Scherf et al.
# Submitted via: ExactAudioCopy v1.0b3
#
DISCID=2103e403
DTITLE=Ted Herold - Vergeben, Vergessen, Vorbei
DYEAR=1991
DGENRE=Rock
TTITLE0=Vergeben, Vergessen, Vorbei (single edit) 
TTITLE1=Vergeben, Vergessen, Vorbei (long version) 
TTITLE2=Vergeben, Vergessen, Vorbei (instrumental) 
EXTD=YEAR: 1993
EXTT0=
EXTT1=
EXTT2=
PLAYORDER=
